<svg width="25" height="25" viewBox="0 0 25 25" fill="none" xmlns="http://www.w3.org/2000/svg">
<circle cx="12.5" cy="12.5" r="12.5" fill="#001D3A"/>
<g clip-path="url(#clip0_1_209)">
<path d="M18.4625 9.23991C18.4625 9.37991 18.4625 9.51991 18.4625 9.66991C18.47 10.8999 18.248 12.1192 17.8093 13.2568C17.3706 14.3943 16.7241 15.4274 15.9074 16.2957C15.0907 17.1641 14.1201 17.8504 13.0523 18.3147C11.9844 18.7789 10.8406 19.0119 9.6875 18.9999C8.02536 18.9981 6.39856 18.488 5 17.5299C5.24667 17.5452 5.49396 17.5452 5.74063 17.5299C7.12379 17.5335 8.46782 17.0403 9.55625 16.1299C8.91983 16.1179 8.30248 15.8962 7.78887 15.4952C7.27526 15.0941 6.89054 14.5334 6.6875 13.8899C6.87982 13.922 7.0741 13.9387 7.26875 13.9399C7.54076 13.9395 7.81164 13.9025 8.075 13.8299C7.37852 13.6797 6.7523 13.2769 6.30281 12.6898C5.85331 12.1028 5.60828 11.3679 5.60938 10.6099C6.03696 10.8538 6.51216 10.9873 6.99688 10.9999C6.34091 10.5353 5.87704 9.81994 5.70088 9.00132C5.52471 8.18269 5.64967 7.32318 6.05 6.59991C6.82475 7.60782 7.78908 8.43119 8.88071 9.01683C9.97233 9.60248 11.167 9.93738 12.3875 9.99991C12.3386 9.75329 12.3135 9.50199 12.3125 9.24991C12.3118 8.59223 12.4965 7.94952 12.8426 7.40522C13.1887 6.86092 13.6802 6.44016 14.2533 6.19758C14.8264 5.955 15.4546 5.90179 16.0564 6.04486C16.6583 6.18794 17.2058 6.52069 17.6281 6.99991C18.3169 6.87242 18.9799 6.61867 19.5875 6.24991C19.3592 7.00853 18.8792 7.65215 18.2375 8.05991C18.8454 7.98398 19.4394 7.81211 20 7.54991C19.5798 8.20109 19.0601 8.77237 18.4625 9.23991Z" fill="white"/>
</g>
<defs>
<clipPath id="clip0_1_209">
<rect width="15" height="13" fill="white" transform="translate(5 6)"/>
</clipPath>
</defs>
</svg>
