<svg width="25" height="25" viewBox="0 0 25 25" fill="none" xmlns="http://www.w3.org/2000/svg">
<circle cx="12.5" cy="12.5" r="12.5" fill="#001D3A"/>
<g clip-path="url(#clip0_1_213)">
<path d="M9.99687 12.5C9.99687 12.0049 10.1437 11.521 10.4187 11.1093C10.6938 10.6977 11.0847 10.3769 11.5421 10.1874C11.9995 9.99796 12.5028 9.94839 12.9883 10.045C13.4739 10.1416 13.9199 10.38 14.27 10.73C14.62 11.0801 14.8584 11.5261 14.955 12.0117C15.0516 12.4972 15.002 13.0005 14.8126 13.4579C14.6231 13.9153 14.3023 14.3062 13.8907 14.5813C13.479 14.8563 12.9951 15.0031 12.5 15.0031C11.8361 15.0031 11.1995 14.7394 10.73 14.27C10.2606 13.8005 9.99687 13.1639 9.99687 12.5ZM8.64688 12.5C8.64688 13.2621 8.87286 14.007 9.29624 14.6407C9.71963 15.2743 10.3214 15.7682 11.0255 16.0598C11.7295 16.3515 12.5043 16.4278 13.2517 16.2791C13.9991 16.1304 14.6857 15.7634 15.2246 15.2246C15.7634 14.6857 16.1304 13.9991 16.2791 13.2517C16.4278 12.5043 16.3515 11.7295 16.0598 11.0255C15.7682 10.3214 15.2743 9.71963 14.6407 9.29624C14.007 8.87286 13.2621 8.64688 12.5 8.64688C11.4781 8.64688 10.498 9.05283 9.77543 9.77543C9.05283 10.498 8.64688 11.4781 8.64688 12.5ZM15.6031 8.49688C15.6031 8.6823 15.6581 8.86355 15.7611 9.01772C15.8641 9.17189 16.0106 9.29206 16.1819 9.36301C16.3532 9.43397 16.5417 9.45254 16.7235 9.41636C16.9054 9.38019 17.0724 9.2909 17.2035 9.15979C17.3346 9.02868 17.4239 8.86163 17.4601 8.67977C17.4963 8.49792 17.4777 8.30941 17.4068 8.13811C17.3358 7.9668 17.2156 7.82039 17.0615 7.71737C16.9073 7.61436 16.726 7.55938 16.5406 7.55938C16.292 7.55938 16.0535 7.65815 15.8777 7.83396C15.7019 8.00978 15.6031 8.24823 15.6031 8.49688ZM9.47188 18.6031C8.99461 18.5967 8.52203 18.5079 8.075 18.3406C7.74921 18.2197 7.45455 18.0275 7.2125 17.7781C6.96264 17.5365 6.77039 17.2417 6.65 16.9156C6.4827 16.4686 6.3939 15.996 6.3875 15.5188C6.3875 14.7312 6.3875 14.4875 6.3875 12.4906C6.3875 10.4937 6.3875 10.25 6.3875 9.4625C6.39427 8.98527 6.48306 8.51276 6.65 8.06562C6.77096 7.73984 6.96314 7.44517 7.2125 7.20312C7.45414 6.95327 7.74893 6.76102 8.075 6.64062C8.52203 6.47333 8.99461 6.38452 9.47188 6.37813C10.2594 6.37813 10.5031 6.37813 12.5 6.37813C14.4969 6.37813 14.7406 6.37813 15.5281 6.37813C16.0054 6.38489 16.4779 6.47369 16.925 6.64062C17.2509 6.7613 17.5457 6.95352 17.7875 7.20312C18.0371 7.44497 18.2293 7.7397 18.35 8.06562C18.5173 8.51266 18.6061 8.98523 18.6125 9.4625C18.6125 10.25 18.6125 10.4937 18.6125 12.4906C18.6125 14.4875 18.6125 14.7312 18.6125 15.5188C18.6057 15.996 18.5169 16.4685 18.35 16.9156C18.2252 17.2395 18.0339 17.5337 17.7885 17.7791C17.543 18.0245 17.2489 18.2158 16.925 18.3406C16.478 18.5079 16.0054 18.5967 15.5281 18.6031C14.7406 18.6031 14.4969 18.6031 12.5 18.6031C10.5031 18.6031 10.2594 18.6031 9.47188 18.6031ZM9.40625 5C8.78204 5.02705 8.167 5.16021 7.5875 5.39375C7.08639 5.58118 6.63211 5.8755 6.25625 6.25625C5.87503 6.63173 5.58064 7.08612 5.39375 7.5875C5.16021 8.167 5.02705 8.78204 5 9.40625C5 10.2031 5 10.4656 5 12.5C5 14.5344 5 14.7969 5 15.5938C5.01208 16.2152 5.12936 16.8302 5.34688 17.4125C5.53377 17.9139 5.82816 18.3683 6.20937 18.7437C6.58524 19.1245 7.03952 19.4188 7.54063 19.6062C8.13485 19.8451 8.7662 19.9783 9.40625 20C10.2031 20 10.4656 20 12.5 20C14.5344 20 14.7969 20 15.5938 20C16.2152 19.9879 16.8302 19.8706 17.4125 19.6531C17.9108 19.4605 18.3634 19.1658 18.7412 18.788C19.1189 18.4103 19.4136 17.9577 19.6062 17.4594C19.8454 16.8653 19.9787 16.2338 20 15.5938C20 14.7969 20 14.5344 20 12.5C20 10.4656 20 10.2031 20 9.40625C19.9879 8.78476 19.8706 8.16981 19.6531 7.5875C19.4657 7.08639 19.1714 6.63211 18.7906 6.25625C18.4016 5.86922 17.9306 5.57447 17.4125 5.39375C16.8331 5.16003 16.218 5.02687 15.5938 5C14.7969 5 14.5344 5 12.5 5C10.4656 5 10.2125 5 9.40625 5Z" fill="white"/>
</g>
<defs>
<clipPath id="clip0_1_213">
<rect width="15" height="15" fill="white" transform="translate(5 5)"/>
</clipPath>
</defs>
</svg>
