<svg width="25" height="25" viewBox="0 0 25 25" fill="none" xmlns="http://www.w3.org/2000/svg">
<circle cx="12.5" cy="12.5" r="12.5" fill="#001D3A"/>
<path d="M12.7839 8C13.8295 8.00526 17.3554 8.03997 18.3478 8.2691C18.9981 8.41311 19.5068 8.84517 19.6851 9.40324C19.9002 10.4249 20.0051 11.46 19.9998 12.4996C20.0051 13.5393 19.9002 14.5744 19.6851 15.596C19.5068 16.1541 18.9928 16.5862 18.3425 16.7302C17.2793 16.9757 13.312 16.998 12.5995 17H12.3796C11.667 16.998 7.69974 16.9757 6.63651 16.7302C5.99142 16.5817 5.48794 16.1496 5.31486 15.596C5.09984 14.5744 4.99494 13.5393 5.00019 12.4996C4.99494 11.46 5.09984 10.4249 5.31486 9.40324C5.48794 8.84967 5.99142 8.41761 6.63651 8.2691C7.62886 8.03997 11.151 8.00526 12.1955 8H12.7839ZM10.9948 10.5689V14.4304L14.8863 12.4996L10.9948 10.5689Z" fill="white"/>
</svg>
