<svg width="25" height="25" viewBox="0 0 25 25" fill="none" xmlns="http://www.w3.org/2000/svg">
<circle cx="12.5" cy="12.5" r="12.5" fill="#001D3A"/>
<g clip-path="url(#clip0_1_226)">
<path d="M4.99997 6.74735C4.99266 6.51204 5.03413 6.27787 5.12152 6.06096C5.20892 5.84404 5.34016 5.64953 5.50622 5.49081C5.86961 5.15429 6.34342 4.97836 6.82809 4.99997C7.29991 4.97766 7.76119 5.15042 8.11247 5.48099C8.28069 5.64839 8.41286 5.85144 8.50016 6.07659C8.58746 6.30174 8.62788 6.54381 8.61872 6.78662C8.62482 7.01415 8.58449 7.24043 8.50042 7.45034C8.41636 7.66026 8.29049 7.84898 8.13122 8.00389C7.76691 8.34637 7.28912 8.52606 6.79997 8.50455C6.56021 8.51858 6.32024 8.48144 6.09461 8.39537C5.86899 8.30931 5.66243 8.17612 5.48747 8.00389C5.32721 7.84148 5.20107 7.64584 5.11713 7.42947C5.03319 7.21311 4.99328 6.98078 4.99997 6.74735ZM5.18747 20V9.90834H8.40309V20H5.18747ZM10.1843 20H13.4375V14.3553C13.4252 14.0787 13.4634 13.8022 13.55 13.5405C13.6831 13.1997 13.8958 12.8992 14.1687 12.6669C14.4616 12.4249 14.8271 12.2996 15.2 12.3134C16.2812 12.3134 16.8218 13.0759 16.8218 14.6008V20.0098H20V14.1983C20.0824 12.97 19.7211 11.7542 18.9875 10.7919C18.6473 10.4071 18.2313 10.1042 17.7684 9.9042C17.3055 9.70421 16.8066 9.61184 16.3062 9.63348C15.7284 9.62548 15.1588 9.77741 14.6551 10.0739C14.1513 10.3704 13.7313 10.8009 13.4375 11.322V9.90834H10.1843C10.1843 10.229 10.1843 11.2336 10.1843 12.9221C10.1843 14.6106 10.1843 16.9699 10.1843 20Z" fill="white"/>
</g>
<defs>
<clipPath id="clip0_1_226">
<rect width="15" height="15" fill="white" transform="translate(5 5)"/>
</clipPath>
</defs>
</svg>
