<svg width="25" height="25" viewBox="0 0 25 25" fill="none" xmlns="http://www.w3.org/2000/svg">
<circle cx="12.5" cy="12.5" r="12.5" fill="#001D3A"/>
<path d="M19.8468 13.6837C20.335 9.92017 19.6122 7.54414 18.3086 6.46946L18.3093 6.46883C16.2052 4.63358 9.09924 4.36194 6.58196 6.55126C5.4515 7.62219 5.05332 9.19393 5.00968 11.1397C4.96604 13.0861 4.91422 16.7323 8.62401 17.7214H8.62742L8.62401 19.232C8.62401 19.232 8.59878 19.8439 9.0256 19.9669C9.51379 20.1118 9.7347 19.8277 11.2531 18.1666C13.7922 18.3683 15.7422 17.9062 15.9638 17.8388C16.4765 17.6814 19.3777 17.3299 19.8468 13.6837ZM11.5033 17.1038C11.5033 17.1038 9.89629 18.9391 9.39651 19.4155C9.23288 19.5704 9.05356 19.556 9.05628 19.2488C9.05628 19.0471 9.06856 16.741 9.06856 16.741C5.92332 15.9155 6.10877 12.8107 6.14287 11.1865C6.17696 9.56173 6.5015 8.23103 7.45878 7.33495C9.6672 5.43849 15.897 5.86249 17.4843 7.22879C19.4247 8.80427 18.734 13.2553 18.7381 13.4071C18.3393 16.4507 15.9884 16.6436 15.5561 16.7754C15.3713 16.8316 13.6565 17.2356 11.5033 17.1038Z" fill="white"/>
<path d="M12.3922 7.69141C12.1297 7.69141 12.1297 8.06608 12.3922 8.0692C14.4288 8.08356 16.1061 9.38366 16.1245 11.7684C16.1245 12.0201 16.5267 12.017 16.5233 11.7653C16.5015 9.1957 14.6695 7.70577 12.3922 7.69141Z" fill="white"/>
<path d="M15.071 11.3731C15.0649 11.6217 15.4665 11.6335 15.4699 11.3819C15.5033 9.96502 14.5494 8.79792 12.7569 8.6749C12.4944 8.65742 12.4671 9.03521 12.729 9.0527C14.2835 9.16073 15.1024 10.1324 15.071 11.3731Z" fill="white"/>
<path d="M14.6416 12.9849C14.3047 12.8063 13.9618 12.9175 13.82 13.0929L13.5234 13.4445C13.3727 13.6231 13.0911 13.5994 13.0911 13.5994C11.0361 13.1017 10.4865 11.1322 10.4865 11.1322C10.4865 11.1322 10.4613 10.8655 10.6495 10.7225L11.0204 10.4415C11.2059 10.3066 11.3231 9.98192 11.1343 9.66283C10.6297 8.82794 10.2909 8.54007 10.1184 8.31901C9.937 8.11107 9.66427 8.06424 9.38063 8.20474H9.3745C8.78472 8.52071 8.13904 9.11206 8.34563 9.7209C8.69813 10.3628 9.34586 12.4092 11.4104 13.9553C12.3806 14.6865 13.9161 15.4359 14.5679 15.6088L14.5741 15.6176C15.2163 15.8137 15.8409 15.1992 16.1743 14.6428V14.6384C16.3222 14.3693 16.2732 14.1145 16.057 13.9478C15.6738 13.6056 15.0957 13.2278 14.6416 12.9849Z" fill="white"/>
<path d="M13.0378 10.0689C13.6931 10.1038 14.0108 10.4173 14.0449 11.0611C14.0572 11.3128 14.456 11.2953 14.4437 11.0436C14.4001 10.2031 13.9215 9.73478 13.0597 9.69107C12.7972 9.67671 12.7726 10.0545 13.0378 10.0689Z" fill="white"/>
</svg>
