<svg width="25" height="25" viewBox="0 0 25 25" fill="none" xmlns="http://www.w3.org/2000/svg">
<circle cx="12.5" cy="12.5" r="12.5" fill="#001D3A"/>
<path d="M13.4325 10.8912H13.4328C14.5046 8.04133 12.3844 5 9.35538 5C6.95373 5 5 6.95491 5 9.35803C5 12.4018 8.05624 14.5114 10.8933 13.4355C11.4135 12.3179 12.3164 11.4132 13.4325 10.8912ZM9.79654 11.7314V12.2276C9.79654 12.4711 9.5992 12.6688 9.35538 12.6688C9.11187 12.6688 8.91423 12.4711 8.91423 12.2276V11.7314C8.72891 11.7314 8.31079 11.7602 7.83722 11.4312C7.63723 11.2924 7.58753 11.0174 7.72664 10.8174C7.86545 10.6171 8.14044 10.5677 8.34043 10.7065C8.46034 10.7906 8.61227 10.8475 8.76218 10.8491H9.8933C10.1778 10.8491 10.4174 10.6193 10.4174 10.3242C10.4174 10.0348 10.1821 9.79919 9.89301 9.79919C9.53193 9.79919 9.24039 9.79919 8.81776 9.79919C8.04221 9.79919 7.41106 9.16804 7.41106 8.3919C7.41106 7.68461 7.9376 6.98461 8.91423 6.98461V6.48875C8.91423 6.24494 9.11187 6.0476 9.35538 6.0476C9.5992 6.0476 9.79654 6.24494 9.79654 6.48875V6.98461C10.3164 6.98461 10.7331 7.18102 11.0406 7.50929C11.2071 7.68723 11.1979 7.96633 11.0203 8.13309C10.8447 8.29732 10.5667 8.29299 10.3968 8.1125C10.2521 7.95839 10.0548 7.86898 9.85477 7.86692H8.81776C8.52754 7.86692 8.29337 8.10288 8.29337 8.3919C8.29337 8.6813 8.52866 8.91687 8.81776 8.91687H9.82595C10.7386 8.91687 11.2997 9.5964 11.2997 10.3242C11.2997 11.0468 10.7578 11.7314 9.79654 11.7314Z" fill="white"/>
<path d="M15.6444 11.2832C13.2456 11.2832 11.2891 13.2346 11.2891 15.6412C11.2891 18.0444 13.2428 19.9993 15.6444 19.9993C18.0461 19.9993 19.9998 18.0444 19.9998 15.6412C19.9998 13.2381 18.0461 11.2832 15.6444 11.2832ZM17.6082 17.9879C17.535 18.2194 17.2874 18.349 17.0544 18.2749C16.1322 17.9824 15.3372 18.0404 14.4898 18.2791C14.1126 18.385 13.7942 17.9821 13.9848 17.6397C14.2416 17.1791 14.408 16.6829 14.481 16.1709H14.101C13.8575 16.1709 13.6598 15.9733 13.6598 15.7298C13.6598 15.4859 13.8575 15.2886 14.101 15.2886H14.5139C14.5057 15.1656 14.4999 15.124 14.4589 14.7507C14.3558 13.8083 15.0948 12.9869 16.0391 12.9869C16.4935 12.9869 16.927 13.1819 17.2288 13.5222C17.3905 13.7046 17.3738 13.9834 17.1914 14.1448C17.0075 14.3079 16.7288 14.2882 16.5685 14.1075C16.1175 13.5982 15.2608 13.9635 15.3359 14.6545C15.3775 15.0325 15.3879 15.1109 15.398 15.2886H16.0144C16.2579 15.2886 16.4556 15.4859 16.4556 15.7298C16.4556 15.9733 16.2579 16.1709 16.0144 16.1709H15.3709C15.3286 16.5341 15.2468 16.8915 15.1274 17.2379C15.8873 17.1385 16.6388 17.2165 17.3211 17.4341C17.5535 17.5076 17.682 17.7558 17.6082 17.9879Z" fill="white"/>
<path d="M15.949 6.40453C16.8195 6.40453 17.7277 7.06261 17.7277 8.26091V8.67266L17.3327 8.27768C17.1612 8.10618 16.8815 8.10512 16.7086 8.27768C16.5366 8.45002 16.5366 8.72942 16.7086 8.90176L17.8568 10.0499C18.0311 10.2241 18.3104 10.2202 18.4806 10.0499L18.4809 10.0497L19.6288 8.90176C19.8011 8.72942 19.8011 8.45002 19.6288 8.27768C19.4567 8.10562 19.1773 8.10562 19.005 8.27768L18.61 8.67266V8.26091C18.61 6.6566 17.3907 5.52222 15.949 5.52222C15.7055 5.52222 15.5078 5.71956 15.5078 5.96337C15.5078 6.20689 15.7055 6.40453 15.949 6.40453Z" fill="white"/>
<path d="M9.05127 18.5947C8.18078 18.5947 7.27253 17.9366 7.27253 16.7383V16.3265L7.66751 16.7215C7.83809 16.8921 8.11735 16.8951 8.2916 16.7215C8.46365 16.5492 8.46365 16.2698 8.2916 16.0974L7.14342 14.9495V14.9492C6.96546 14.7714 6.68809 14.7807 6.51933 14.9492V14.9495L5.37145 16.0974C5.1991 16.2698 5.1991 16.5492 5.37145 16.7215C5.5435 16.8936 5.8229 16.8936 5.99524 16.7215L6.39022 16.3265V16.7383C6.39022 18.3426 7.60958 19.477 9.05127 19.477C9.29479 19.477 9.49243 19.2796 9.49243 19.0358C9.49243 18.7923 9.29479 18.5947 9.05127 18.5947Z" fill="white"/>
</svg>
