<svg width="25" height="25" viewBox="0 0 25 25" fill="none" xmlns="http://www.w3.org/2000/svg">
<circle cx="12.5" cy="12.5" r="12.5" fill="#001D3A"/>
<g clip-path="url(#clip0_1_46)">
<path d="M15.0657 13.9062L14.1282 16.7188H18.1252L17.1877 13.9062H15.0657Z" fill="white"/>
<path d="M16.4844 16.7188L15.5469 19.5312H19.5439L18.6064 16.7188H16.4844Z" fill="white"/>
<path d="M11.7969 16.7188L10.8594 19.5312H14.8564L13.9189 16.7188H11.7969Z" fill="white"/>
<path d="M17.6562 6.875L14.375 7.53125L15.2188 8.375L12.5 11.0938L10.8594 9.45312L6.40625 13.9062L7.34375 14.8438L10.8594 11.3281L12.5 12.9688L16.1562 9.3125L17 10.1562L17.6562 6.875Z" fill="white"/>
<path d="M18.7629 16.4844H18.2941L17.3566 13.6719H9.51863L8.58113 16.4844H6.23738L5.14355 19.7656H19.8564L18.7629 16.4844ZM9.8566 14.1406H17.0189L17.8003 16.4844H9.0752L9.8566 14.1406ZM5.79418 19.2969L6.57535 16.9531H13.7376L14.5188 19.2969H5.79418ZM14.2317 16.9531H18.4251L19.2063 19.2969H15.0129L14.2317 16.9531Z" fill="white"/>
<path d="M7.8125 7.10938H8.28125V7.8125H7.8125V7.10938Z" fill="white"/>
<path d="M6.88647 7.68726L7.21793 7.3558L7.71512 7.85298L7.38366 8.18444L6.88647 7.68726Z" fill="white"/>
<path d="M6.64062 8.28125H7.34375V8.75H6.64062V8.28125Z" fill="white"/>
<path d="M6.88647 9.34399L7.38366 8.84681L7.71512 9.17827L7.21793 9.67545L6.88647 9.34399Z" fill="white"/>
<path d="M7.8125 9.21875H8.28125V9.92188H7.8125V9.21875Z" fill="white"/>
<path d="M8.37769 9.17822L8.70914 8.84677L9.20633 9.34395L8.87487 9.67541L8.37769 9.17822Z" fill="white"/>
<path d="M8.75 8.28125H9.45312V8.75H8.75V8.28125Z" fill="white"/>
<path d="M8.37793 7.85278L8.87511 7.3556L9.20657 7.68706L8.70939 8.18424L8.37793 7.85278Z" fill="white"/>
<path d="M12.2656 6.64062H12.7344V7.10938H12.2656V6.64062Z" fill="white"/>
<path d="M12.2656 7.57812H12.7344V8.04688H12.2656V7.57812Z" fill="white"/>
<path d="M12.7344 7.10938H13.2031V7.57812H12.7344V7.10938Z" fill="white"/>
<path d="M11.7969 7.10938H12.2656V7.57812H11.7969V7.10938Z" fill="white"/>
<path d="M18.3594 10.8594H18.8281V11.3281H18.3594V10.8594Z" fill="white"/>
<path d="M18.3594 11.7969H18.8281V12.2656H18.3594V11.7969Z" fill="white"/>
<path d="M18.8281 11.3281H19.2969V11.7969H18.8281V11.3281Z" fill="white"/>
<path d="M17.8906 11.3281H18.3594V11.7969H17.8906V11.3281Z" fill="white"/>
<path d="M18.8281 5.23438H19.2969V5.70312H18.8281V5.23438Z" fill="white"/>
<path d="M18.8281 6.17188H19.2969V6.64062H18.8281V6.17188Z" fill="white"/>
<path d="M19.2969 5.70312H19.7656V6.17188H19.2969V5.70312Z" fill="white"/>
<path d="M18.3594 5.70312H18.8281V6.17188H18.3594V5.70312Z" fill="white"/>
<path d="M9.21875 5.23438H9.6875V5.70312H9.21875V5.23438Z" fill="white"/>
<path d="M9.21875 6.17188H9.6875V6.64062H9.21875V6.17188Z" fill="white"/>
<path d="M9.6875 5.70312H10.1562V6.17188H9.6875V5.70312Z" fill="white"/>
<path d="M8.75 5.70312H9.21875V6.17188H8.75V5.70312Z" fill="white"/>
<path d="M5.70312 11.5625H6.17188V12.0312H5.70312V11.5625Z" fill="white"/>
<path d="M5.70312 12.5H6.17188V12.9688H5.70312V12.5Z" fill="white"/>
<path d="M6.17188 12.0312H6.64062V12.5H6.17188V12.0312Z" fill="white"/>
<path d="M5.23438 12.0312H5.70312V12.5H5.23438V12.0312Z" fill="white"/>
<path d="M10.1562 14.6094H10.625V15.0781H10.1562V14.6094Z" fill="white"/>
<path d="M12.0312 14.6094H12.5V15.0781H12.0312V14.6094Z" fill="white"/>
<path d="M11.0938 14.6094H11.5625V15.0781H11.0938V14.6094Z" fill="white"/>
<path d="M8.75 17.4219H9.21875V17.8906H8.75V17.4219Z" fill="white"/>
<path d="M7.8125 17.4219H8.28125V17.8906H7.8125V17.4219Z" fill="white"/>
<path d="M6.875 17.4219H7.34375V17.8906H6.875V17.4219Z" fill="white"/>
</g>
<defs>
<clipPath id="clip0_1_46">
<rect width="15" height="15" fill="white" transform="translate(5 5)"/>
</clipPath>
</defs>
</svg>
