<svg width="25" height="25" viewBox="0 0 25 25" fill="none" xmlns="http://www.w3.org/2000/svg">
<circle cx="12.5" cy="12.5" r="12.5" fill="#001D3A"/>
<g clip-path="url(#clip0_1_95)">
<path d="M16.7448 16.1621H8.74156C5.78463 16.1621 4.0005 12.9031 5.60073 10.4594C6.23759 9.48645 6.88968 9.3299 6.88968 9.196C6.88968 4.90333 12.635 3.4434 14.7528 7.13721C16.5829 6.19639 18.6803 7.98304 18.0023 9.93655C21.3208 11.292 20.2312 16.1621 16.7448 16.1621ZM7.7687 9.196C7.7687 9.48039 7.75554 9.78469 7.39196 9.97523C4.80273 11.332 5.75545 15.283 8.74156 15.283H16.7448C19.3806 15.283 20.0726 11.5796 17.5498 10.7051C17.1589 10.5696 16.9654 10.1277 17.1325 9.74852C17.6927 8.478 16.2174 7.26012 15.0665 7.96885C14.7117 8.18732 14.2457 8.05949 14.0542 7.69156C12.4716 4.65293 7.7687 5.72638 7.7687 9.196Z" fill="white"/>
<path d="M8.45508 12.9923V11.5319C8.45508 11.0837 8.57833 10.7548 8.82518 10.5453C9.07191 10.3359 9.39372 10.2312 9.79083 10.2312C10.1989 10.2312 10.5338 10.3286 10.7954 10.5234C11.057 10.7181 11.1877 10.9863 11.1877 11.328C11.1877 11.4859 11.1544 11.5935 11.0876 11.6504C11.0207 11.7074 10.9095 11.7359 10.7536 11.7359C10.4754 11.7359 10.3307 11.6496 10.3195 11.4768C10.3084 11.1462 10.1433 10.9808 9.82425 10.9808C9.49031 10.9808 9.32334 11.1646 9.32334 11.5319V12.9924C9.32334 13.3598 9.49214 13.5436 9.82974 13.5436C9.93365 13.5436 10.0199 13.527 10.0886 13.4939C10.1572 13.4608 10.2063 13.4104 10.236 13.3424C10.2656 13.2744 10.2852 13.2183 10.2945 13.1743C10.3036 13.1302 10.312 13.0696 10.3195 12.9924C10.3343 12.8197 10.4771 12.7333 10.748 12.7333C10.9075 12.7333 11.0207 12.7619 11.0876 12.8188C11.1544 12.8758 11.1877 12.9833 11.1877 13.1412C11.1877 13.4977 11.0569 13.7788 10.7954 13.9845C10.5338 14.1903 10.1988 14.2931 9.79072 14.2931C9.39372 14.2931 9.0718 14.1883 8.82518 13.9789C8.57833 13.7695 8.45508 13.4407 8.45508 12.9923Z" fill="white"/>
<path d="M11.8054 12.9923V11.5319C11.8054 11.0837 11.9297 10.7548 12.1784 10.5453C12.4268 10.3359 12.7571 10.2312 13.169 10.2312C13.5845 10.2312 13.9166 10.3359 14.1652 10.5453C14.4138 10.7548 14.5382 11.0837 14.5382 11.5319V12.9923C14.5382 13.4407 14.4138 13.7695 14.1652 13.9789C13.9166 14.1883 13.5845 14.2931 13.169 14.2931C12.7571 14.2931 12.4268 14.1883 12.1784 13.9789C11.9297 13.7695 11.8054 13.4407 11.8054 12.9923ZM12.6737 12.9923C12.6737 13.3598 12.8387 13.5435 13.169 13.5435C13.5029 13.5435 13.6699 13.3598 13.6699 12.9923V11.5319C13.6699 11.1646 13.5029 10.9808 13.169 10.9808C12.8387 10.9808 12.6737 11.1645 12.6737 11.5319V12.9923Z" fill="white"/>
<path d="M15.1746 14.0976V13.7697C15.1746 13.6729 15.2108 13.576 15.2835 13.479C15.3561 13.3822 15.4438 13.2955 15.5467 13.2188L15.8581 12.9879C15.9658 12.911 16.0569 12.8305 16.1314 12.7467C16.2059 12.663 16.2431 12.5815 16.2431 12.5022C16.2431 12.4388 16.2214 12.3828 16.1779 12.3341C16.1343 12.2854 16.0689 12.261 15.9819 12.261C15.9063 12.261 15.8444 12.282 15.7963 12.3239C15.7481 12.3656 15.7241 12.4319 15.7241 12.5225C15.7241 12.5761 15.6989 12.6226 15.6488 12.662C15.5986 12.7015 15.5322 12.7213 15.4496 12.7213C15.2934 12.7213 15.2153 12.6306 15.2153 12.4492C15.2153 12.2544 15.2912 12.0981 15.4432 11.9806C15.5951 11.863 15.7735 11.8042 15.9785 11.8042C16.1898 11.8042 16.3748 11.8655 16.5338 11.9884C16.6928 12.1112 16.7724 12.2768 16.7724 12.4852C16.7724 12.6211 16.736 12.749 16.6632 12.869C16.5905 12.989 16.503 13.0898 16.4008 13.1712C16.2985 13.2528 16.1957 13.3275 16.0924 13.3955C15.9889 13.4634 15.9006 13.5296 15.8272 13.5941C15.754 13.6587 15.7174 13.7181 15.7174 13.7725V13.803H16.6119C16.6551 13.803 16.6926 13.8253 16.7245 13.8702C16.7565 13.9149 16.7724 13.9676 16.7724 14.028C16.7724 14.0884 16.7565 14.1422 16.7249 14.1893C16.6932 14.2363 16.6559 14.2599 16.613 14.2599H15.4053C15.3532 14.2599 15.3018 14.2441 15.2509 14.2125C15.2 14.181 15.1746 14.1427 15.1746 14.0976Z" fill="white"/>
</g>
<defs>
<clipPath id="clip0_1_95">
<rect width="15" height="15" fill="white" transform="translate(5 5)"/>
</clipPath>
</defs>
</svg>
