<svg width="25" height="25" viewBox="0 0 25 25" fill="none" xmlns="http://www.w3.org/2000/svg">
<circle cx="12.5" cy="12.5" r="12.5" fill="#001D3A"/>
<path d="M18.2208 10.0874C18.2208 11.9123 16.7415 13.3917 14.9165 13.3917C13.0917 13.3917 11.6123 11.9123 11.6123 10.0874C11.6123 8.26256 13.0917 6.7832 14.9165 6.7832C16.7415 6.7832 18.2208 8.26256 18.2208 10.0874Z" fill="white"/>
<path d="M19.7457 10.3416H19.2373C19.097 10.3416 18.9832 10.2278 18.9832 10.0874C18.9832 9.94706 19.097 9.83325 19.2373 9.83325H19.7457C19.8862 9.83325 19.9998 9.94706 19.9998 10.0874C19.9998 10.2278 19.8862 10.3416 19.7457 10.3416Z" fill="white"/>
<path d="M14.4082 6.02059C14.2679 6.02059 14.1541 5.90678 14.1541 5.76642V5.25808C14.1541 5.11771 14.2679 5.00391 14.4082 5.00391C14.5487 5.00391 14.6624 5.11771 14.6624 5.25808V5.76642C14.6624 5.90678 14.5487 6.02059 14.4082 6.02059Z" fill="white"/>
<path d="M17.9667 7.29135C17.8639 7.29135 17.7713 7.22942 17.732 7.13435C17.6927 7.03941 17.7144 6.9302 17.7871 6.85747L18.2955 6.34913C18.3592 6.28298 18.4537 6.25655 18.5426 6.27975C18.6314 6.30309 18.7008 6.37246 18.7241 6.46132C18.7473 6.55018 18.7209 6.64463 18.6547 6.70854L18.1464 7.21688C18.0987 7.26454 18.0342 7.29135 17.9667 7.29135Z" fill="white"/>
<path d="M16.538 16.4415C17.4965 16.4645 18.3921 15.9663 18.8783 15.1399C19.3643 14.3134 19.3643 13.2885 18.8783 12.4619C18.3921 11.6355 17.4965 11.1373 16.538 11.1603C16.3588 11.1604 16.1799 11.1779 16.0042 11.2127C15.7841 10.1952 14.8803 9.47195 13.8394 9.48001C13.5212 9.48014 13.2066 9.54815 12.9168 9.67958C12.4063 8.36777 11.0409 7.59855 9.65451 7.8418C8.26811 8.08505 7.24609 9.273 7.2127 10.6803C7.21332 11.0091 7.27165 11.3353 7.38496 11.6441C6.52254 11.6492 5.72925 12.1167 5.30704 12.8688C4.88495 13.6208 4.89885 14.5416 5.34377 15.2805C5.78857 16.0193 6.59577 16.4626 7.45794 16.4415" fill="white"/>
<path d="M15.425 17.4582C15.425 18.0197 14.9699 18.4749 14.4083 18.4749C13.8468 18.4749 13.3916 18.0197 13.3916 17.4582C13.3916 16.6957 14.4083 14.9165 14.4083 14.9165C14.4083 14.9165 15.425 16.6957 15.425 17.4582Z" fill="white"/>
<path d="M12.8832 14.9165C12.8832 15.4779 12.4281 15.9332 11.8665 15.9332C11.3051 15.9332 10.8499 15.4779 10.8499 14.9165C10.8499 14.154 11.8665 12.3748 11.8665 12.3748C11.8665 12.3748 12.8832 14.154 12.8832 14.9165Z" fill="white"/>
<path d="M10.5956 17.9665C10.5956 18.528 10.1405 18.9832 9.57894 18.9832C9.01748 18.9832 8.56226 18.528 8.56226 17.9665C8.56226 17.204 9.57894 15.4248 9.57894 15.4248C9.57894 15.4248 10.5956 17.204 10.5956 17.9665Z" fill="white"/>
</svg>
