<svg width="25" height="25" viewBox="0 0 25 25" fill="none" xmlns="http://www.w3.org/2000/svg">
<circle cx="12.5" cy="12.5" r="12.5" fill="#001D3A"/>
<g clip-path="url(#clip0_1_116)">
<path d="M19.6128 8.31036C19.3773 8.07546 19.0686 7.94061 18.7385 7.92707C19.1149 7.41174 19.0706 6.68287 18.6055 6.21784C18.1346 5.74692 17.3931 5.70746 16.8768 6.09939C16.7722 5.47631 16.229 5 15.5767 5C14.8498 5 14.2585 5.59139 14.2585 6.31827V8.01078C13.1017 7.72235 11.8266 8.0249 10.9156 8.93588C9.69943 10.1521 5.51951 18.4238 5.04692 19.363C4.96085 19.534 4.99542 19.7411 5.13238 19.8749C5.26931 20.0087 5.47715 20.0384 5.64613 19.9483C7.09152 19.1781 14.7294 15.0657 15.8875 13.9077C16.792 13.0032 17.0995 11.7245 16.8103 10.5654L18.6826 10.5683C19.4095 10.5679 20.0004 9.97346 20 9.24329C19.9998 8.89053 19.8622 8.55921 19.6128 8.31036ZM15.266 13.2863C15.1337 13.4186 14.8902 13.6034 14.5633 13.8266L13.4294 12.6927C13.2578 12.521 12.9796 12.521 12.808 12.6927C12.6363 12.8643 12.6363 13.1425 12.808 13.3141L13.811 14.3172C13.1483 14.7345 12.326 15.2233 11.4441 15.7328L10.9669 15.2556C10.7953 15.084 10.517 15.084 10.3454 15.2556C10.1738 15.4272 10.1738 15.7054 10.3454 15.8771L10.6542 16.1859C9.19661 17.0161 7.66231 17.8608 6.46726 18.5086C6.86605 17.7308 7.34309 16.8114 7.84524 15.8615C8.01964 16.022 8.28718 16.0151 8.45309 15.8492C8.62471 15.6775 8.62471 15.3993 8.45309 15.2277L8.27613 15.0507C8.71901 14.2221 9.16942 13.3944 9.59329 12.639L10.3176 13.3633C10.4892 13.5349 10.7674 13.5349 10.939 13.3633C11.1107 13.1917 11.1107 12.9134 10.939 12.7418L10.0438 11.8466C10.6941 10.7197 11.241 9.85357 11.5372 9.55741L12.7801 10.8004C12.9517 10.972 13.23 10.972 13.4016 10.8004C13.5732 10.6287 13.5732 10.3505 13.4016 10.1789L12.2644 9.04173C13.2261 8.58142 14.4406 8.73198 15.266 9.55741C16.2941 10.5854 16.2941 12.2582 15.266 13.2863ZM18.683 9.68942L16.4589 9.6918C16.3065 9.4232 16.1162 9.1646 15.8875 8.93591C15.6608 8.70924 15.4027 8.52326 15.1315 8.36878V6.32416C15.1315 6.0819 15.3345 5.87893 15.5768 5.87893C15.819 5.87893 16.0161 6.07604 16.0161 6.3183V7.12487C16.0161 7.5146 16.4897 7.71227 16.7663 7.43562L17.3626 6.83934C17.534 6.66799 17.8127 6.66801 17.9841 6.83934C18.1554 7.0107 18.1554 7.28949 17.9841 7.46082L17.3894 8.05548C17.1132 8.33169 17.3096 8.80569 17.7002 8.80569C17.7003 8.80569 17.7004 8.80569 17.7005 8.80569L18.682 8.80487C18.6822 8.80487 18.6825 8.80487 18.6828 8.80487C18.9256 8.80487 19.121 9.00112 19.1211 9.24388C19.1212 9.48939 18.9243 9.68925 18.683 9.68942Z" fill="white"/>
</g>
<defs>
<clipPath id="clip0_1_116">
<rect width="15" height="15" fill="white" transform="translate(5 5)"/>
</clipPath>
</defs>
</svg>
