<svg width="25" height="25" viewBox="0 0 25 25" fill="none" xmlns="http://www.w3.org/2000/svg">
<circle cx="12.5" cy="12.5" r="12.5" fill="#001D3A"/>
<g clip-path="url(#clip0_1_123)">
<path d="M6.99688 16.0062C6.60193 16.0062 6.21586 16.1234 5.88747 16.3428C5.55909 16.5622 5.30314 16.8741 5.152 17.239C5.00087 17.6038 4.96132 18.0053 5.03837 18.3927C5.11542 18.7801 5.3056 19.1359 5.58487 19.4151C5.86414 19.6944 6.21995 19.8846 6.6073 19.9616C6.99466 20.0387 7.39617 19.9991 7.76105 19.848C8.12593 19.6969 8.4378 19.4409 8.65722 19.1125C8.87664 18.7841 8.99375 18.3981 8.99375 18.0031C8.99375 17.7409 8.9421 17.4812 8.84175 17.239C8.7414 16.9967 8.59431 16.7765 8.40888 16.5911C8.22345 16.4057 8.00332 16.2586 7.76105 16.1583C7.51877 16.0579 7.25911 16.0062 6.99688 16.0062ZM5 10.1V12.9781C5.91985 12.9761 6.83098 13.1565 7.68064 13.5089C8.53031 13.8613 9.30164 14.3787 9.95 15.0312C10.6048 15.6823 11.1241 16.4566 11.4781 17.3094C11.8321 18.1622 12.0137 19.0766 12.0125 20H14.9C14.895 17.3759 13.8504 14.8607 11.9949 13.0051C10.1393 11.1496 7.62412 10.105 5 10.1ZM5 5V7.87812C8.21254 7.88309 11.2919 9.1621 13.5627 11.4346C15.8334 13.7071 17.11 16.7875 17.1125 20H20C20 16.0218 18.4196 12.2064 15.6066 9.3934C12.7936 6.58035 8.97825 5 5 5Z" fill="white"/>
</g>
<defs>
<clipPath id="clip0_1_123">
<rect width="15" height="15" fill="white" transform="translate(5 5)"/>
</clipPath>
</defs>
</svg>
