<svg width="25" height="25" viewBox="0 0 25 25" fill="none" xmlns="http://www.w3.org/2000/svg">
<circle cx="12.5" cy="12.5" r="12.5" fill="#001D3A"/>
<g clip-path="url(#clip0_1_127)">
<path d="M18.2422 6.17188H17.5391V5H16.3672V6.17188H8.63281V5H7.46094V6.17188H6.75781C5.78855 6.17188 5 6.96043 5 7.92969V18.2422C5 19.2114 5.78855 20 6.75781 20H18.2422C19.2114 20 20 19.2114 20 18.2422V7.92969C20 6.96043 19.2114 6.17188 18.2422 6.17188ZM18.8281 18.2422C18.8281 18.5653 18.5653 18.8281 18.2422 18.8281H6.75781C6.43473 18.8281 6.17188 18.5653 6.17188 18.2422V10.5078H18.8281V18.2422ZM18.8281 9.33594H6.17188V7.92969C6.17188 7.6066 6.43473 7.34375 6.75781 7.34375H7.46094V8.51562H8.63281V7.34375H16.3672V8.51562H17.5391V7.34375H18.2422C18.5653 7.34375 18.8281 7.6066 18.8281 7.92969V9.33594Z" fill="white"/>
<path d="M8.39844 11.7383H7.22656V12.9102H8.39844V11.7383Z" fill="white"/>
<path d="M10.7422 11.7383H9.57031V12.9102H10.7422V11.7383Z" fill="white"/>
<path d="M13.0859 11.7383H11.9141V12.9102H13.0859V11.7383Z" fill="white"/>
<path d="M15.4297 11.7383H14.2578V12.9102H15.4297V11.7383Z" fill="white"/>
<path d="M17.7734 11.7383H16.6016V12.9102H17.7734V11.7383Z" fill="white"/>
<path d="M8.39844 14.082H7.22656V15.2539H8.39844V14.082Z" fill="white"/>
<path d="M10.7422 14.082H9.57031V15.2539H10.7422V14.082Z" fill="white"/>
<path d="M13.0859 14.082H11.9141V15.2539H13.0859V14.082Z" fill="white"/>
<path d="M15.4297 14.082H14.2578V15.2539H15.4297V14.082Z" fill="white"/>
<path d="M8.39844 16.4258H7.22656V17.5977H8.39844V16.4258Z" fill="white"/>
<path d="M10.7422 16.4258H9.57031V17.5977H10.7422V16.4258Z" fill="white"/>
<path d="M13.0859 16.4258H11.9141V17.5977H13.0859V16.4258Z" fill="white"/>
<path d="M15.4297 16.4258H14.2578V17.5977H15.4297V16.4258Z" fill="white"/>
<path d="M17.7734 14.082H16.6016V15.2539H17.7734V14.082Z" fill="white"/>
</g>
<defs>
<clipPath id="clip0_1_127">
<rect width="15" height="15" fill="white" transform="translate(5 5)"/>
</clipPath>
</defs>
</svg>
