<svg width="25" height="25" viewBox="0 0 25 25" fill="none" xmlns="http://www.w3.org/2000/svg">
<circle cx="12.5" cy="12.5" r="12.5" fill="#001D3A"/>
<g clip-path="url(#clip0_1_176)">
<path d="M16.3086 11.7383C16.6322 11.7383 16.8945 11.4759 16.8945 11.1523C16.8945 10.8287 16.6322 10.5664 16.3086 10.5664C15.985 10.5664 15.7227 10.8287 15.7227 11.1523C15.7227 11.4759 15.985 11.7383 16.3086 11.7383Z" fill="white"/>
<path d="M17.6562 6.17188H16.8945V5.58594C16.8945 5.26232 16.6322 5 16.3086 5C15.985 5 15.7227 5.26232 15.7227 5.58594V6.17188H13.0566V5.58594C13.0566 5.26232 12.7943 5 12.4707 5C12.1471 5 11.8848 5.26232 11.8848 5.58594V6.17188H9.24805V5.58594C9.24805 5.26232 8.98572 5 8.66211 5C8.3385 5 8.07617 5.26232 8.07617 5.58594V6.17188H7.34375C6.05141 6.17188 5 7.22328 5 8.51562V17.6562C5 18.9486 6.05141 20 7.34375 20H11.8262C12.1498 20 12.4121 19.7377 12.4121 19.4141C12.4121 19.0904 12.1498 18.8281 11.8262 18.8281H7.34375C6.69758 18.8281 6.17188 18.3024 6.17188 17.6562V8.51562C6.17188 7.86945 6.69758 7.34375 7.34375 7.34375H8.07617V7.92969C8.07617 8.2533 8.3385 8.51562 8.66211 8.51562C8.98572 8.51562 9.24805 8.2533 9.24805 7.92969V7.34375H11.8848V7.92969C11.8848 8.2533 12.1471 8.51562 12.4707 8.51562C12.7943 8.51562 13.0566 8.2533 13.0566 7.92969V7.34375H15.7227V7.92969C15.7227 8.2533 15.985 8.51562 16.3086 8.51562C16.6322 8.51562 16.8945 8.2533 16.8945 7.92969V7.34375H17.6562C18.3024 7.34375 18.8281 7.86945 18.8281 8.51562V11.8555C18.8281 12.1791 19.0904 12.4414 19.4141 12.4414C19.7377 12.4414 20 12.1791 20 11.8555V8.51562C20 7.22328 18.9486 6.17188 17.6562 6.17188Z" fill="white"/>
<path d="M16.4551 12.9102C14.5004 12.9102 12.9102 14.5004 12.9102 16.4551C12.9102 18.4098 14.5004 20 16.4551 20C18.4098 20 20 18.4098 20 16.4551C20 14.5004 18.4098 12.9102 16.4551 12.9102ZM16.4551 18.8281C15.1466 18.8281 14.082 17.7636 14.082 16.4551C14.082 15.1466 15.1466 14.082 16.4551 14.082C17.7636 14.082 18.8281 15.1466 18.8281 16.4551C18.8281 17.7636 17.7636 18.8281 16.4551 18.8281Z" fill="white"/>
<path d="M17.3047 15.8691H17.041V15.2539C17.041 14.9303 16.7787 14.668 16.4551 14.668C16.1315 14.668 15.8691 14.9303 15.8691 15.2539V16.4551C15.8691 16.7787 16.1315 17.041 16.4551 17.041H17.3047C17.6283 17.041 17.8906 16.7787 17.8906 16.4551C17.8906 16.1315 17.6283 15.8691 17.3047 15.8691Z" fill="white"/>
<path d="M13.7598 11.7383C14.0834 11.7383 14.3457 11.4759 14.3457 11.1523C14.3457 10.8287 14.0834 10.5664 13.7598 10.5664C13.4362 10.5664 13.1738 10.8287 13.1738 11.1523C13.1738 11.4759 13.4362 11.7383 13.7598 11.7383Z" fill="white"/>
<path d="M11.2109 14.2871C11.5345 14.2871 11.7969 14.0248 11.7969 13.7012C11.7969 13.3776 11.5345 13.1152 11.2109 13.1152C10.8873 13.1152 10.625 13.3776 10.625 13.7012C10.625 14.0248 10.8873 14.2871 11.2109 14.2871Z" fill="white"/>
<path d="M8.66211 11.7383C8.98571 11.7383 9.24805 11.4759 9.24805 11.1523C9.24805 10.8287 8.98571 10.5664 8.66211 10.5664C8.33851 10.5664 8.07617 10.8287 8.07617 11.1523C8.07617 11.4759 8.33851 11.7383 8.66211 11.7383Z" fill="white"/>
<path d="M8.66211 14.2871C8.98571 14.2871 9.24805 14.0248 9.24805 13.7012C9.24805 13.3776 8.98571 13.1152 8.66211 13.1152C8.33851 13.1152 8.07617 13.3776 8.07617 13.7012C8.07617 14.0248 8.33851 14.2871 8.66211 14.2871Z" fill="white"/>
<path d="M8.66211 16.8359C8.98571 16.8359 9.24805 16.5736 9.24805 16.25C9.24805 15.9264 8.98571 15.6641 8.66211 15.6641C8.33851 15.6641 8.07617 15.9264 8.07617 16.25C8.07617 16.5736 8.33851 16.8359 8.66211 16.8359Z" fill="white"/>
<path d="M11.2109 16.8359C11.5345 16.8359 11.7969 16.5736 11.7969 16.25C11.7969 15.9264 11.5345 15.6641 11.2109 15.6641C10.8873 15.6641 10.625 15.9264 10.625 16.25C10.625 16.5736 10.8873 16.8359 11.2109 16.8359Z" fill="white"/>
<path d="M11.2109 11.7383C11.5345 11.7383 11.7969 11.4759 11.7969 11.1523C11.7969 10.8287 11.5345 10.5664 11.2109 10.5664C10.8873 10.5664 10.625 10.8287 10.625 11.1523C10.625 11.4759 10.8873 11.7383 11.2109 11.7383Z" fill="white"/>
</g>
<defs>
<clipPath id="clip0_1_176">
<rect width="15" height="15" fill="white" transform="translate(5 5)"/>
</clipPath>
</defs>
</svg>
